{
  "accessors": [
    {
      "bufferView": 2,
      "componentType": 5126,
      "count": 42623,
      "max": [
        11592.763671875,
        11592.203125,
        11594.6103515625
      ],
      "min": [
        0.0,
        0.0,
        0.0
      ],
      "type": "VEC3"
    },
    {
      "bufferView": 2,
      "byteOffset": 511476,
      "componentType": 5126,
      "count": 42623,
      "max": [
        0.9998485445976257,
        0.9997007250785828,
        0.9998472332954407
      ],
      "min": [
        -0.999767005443573,
        -0.9995964169502258,
        -0.9996951222419739
      ],
      "type": "VEC3"
    },
    {
      "bufferView": 1,
      "componentType": 5126,
      "count": 42623,
      "max": [
        25.399999618530273,
        25.399999618530273
      ],
      "min": [
        0.0,
        0.0
      ],
      "type": "VEC2"
    },
    {
      "bufferView": 0,
      "componentType": 5125,
      "count": 133341,
      "type": "SCALAR"
    },
    {
      "bufferView": 2,
      "byteOffset": 1022952,
      "componentType": 5126,
      "count": 26456,
      "max": [
        11592.763671875,
        11592.203125,
        11594.6103515625
      ],
      "min": [
        0.0,
        0.0,
        0.0
      ],
      "type": "VEC3"
    },
    {
      "bufferView": 2,
      "byteOffset": 1340424,
      "componentType": 5126,
      "count": 26456,
      "max": [
        0.9997888207435608,
        0.9997007250785828,
        0.999767005443573
      ],
      "min": [
        -0.999767005443573,
        -0.9995964169502258,
        -0.9996951222419739
      ],
      "type": "VEC3"
    },
    {
      "bufferView": 1,
      "byteOffset": 340984,
      "componentType": 5126,
      "count": 26456,
      "max": [
        25.399999618530273,
        25.399999618530273
      ],
      "min": [
        0.0,
        0.0
      ],
      "type": "VEC2"
    },
    {
      "bufferView": 0,
      "byteOffset": 533364,
      "componentType": 5125,
      "count": 68376,
      "type": "SCALAR"
    },
    {
      "bufferView": 2,
      "byteOffset": 1657896,
      "componentType": 5126,
      "count": 16104,
      "max": [
        11592.763671875,
        11592.203125,
        11594.6103515625
      ],
      "min": [
        0.0,
        0.0,
        0.0
      ],
      "type": "VEC3"
    },
    {
      "bufferView": 2,
      "byteOffset": 1851144,
      "componentType": 5126,
      "count": 16104,
      "max": [
        0.999721348285675,
        0.9997007250785828,
        0.999767005443573
      ],
      "min": [
        -0.999767005443573,
        -0.9994617104530334,
        -0.9996951222419739
      ],
      "type": "VEC3"
    },
    {
      "bufferView": 1,
      "byteOffset": 552632,
      "componentType": 5126,
      "count": 16104,
      "max": [
        25.399999618530273,
        25.395599365234375
      ],
      "min": [
        0.0,
        0.0
      ],
      "type": "VEC2"
    },
    {
      "bufferView": 0,
      "byteOffset": 806868,
      "componentType": 5125,
      "count": 38934,
      "type": "SCALAR"
    },
    {
      "bufferView": 2,
      "byteOffset": 2044392,
      "componentType": 5126,
      "count": 8590,
      "max": [
        11592.5361328125,
        11591.4140625,
        11594.3251953125
      ],
      "min": [
        0.22216796875,
        0.7890625,
        0.28515625
      ],
      "type": "VEC3"
    },
    {
      "bufferView": 2,
      "byteOffset": 2147472,
      "componentType": 5126,
      "count": 8590,
      "max": [
        0.9998485445976257,
        0.9996050000190735,
        0.9998472332954407
      ],
      "min": [
        -0.9996970295906067,
        -0.9984859228134155,
        -0.9994357824325562
      ],
      "type": "VEC3"
    },
    {
      "bufferView": 1,
      "byteOffset": 681464,
      "componentType": 5126,
      "count": 8590,
      "max": [
        25.355499267578125,
        25.395599365234375
      ],
      "min": [
        0.002400000113993883,
        0.0
      ],
      "type": "VEC2"
    },
    {
      "bufferView": 0,
      "byteOffset": 962604,
      "componentType": 5125,
      "count": 20562,
      "type": "SCALAR"
    }
  ],
  "asset": {
    "extras": {
      "author": "sandyfadous (https://sketchfab.com/sandyfadous)",
      "license": "CC-BY-4.0 (http://creativecommons.org/licenses/by/4.0/)",
      "source": "https://sketchfab.com/3d-models/sphere-05ca7fe34d0d454cadb7489f15a9b8a2",
      "title": "Sphere"
    },
    "generator": "Sketchfab-12.66.0",
    "version": "2.0"
  },
  "bufferViews": [
    {
      "buffer": 0,
      "byteLength": 1044852,
      "name": "floatBufferViews",
      "target": 34963
    },
    {
      "buffer": 0,
      "byteLength": 750184,
      "byteOffset": 1044852,
      "byteStride": 8,
      "name": "floatBufferViews",
      "target": 34962
    },
    {
      "buffer": 0,
      "byteLength": 2250552,
      "byteOffset": 1795036,
      "byteStride": 12,
      "name": "floatBufferViews",
      "target": 34962
    }
  ],
  "buffers": [
    {
      "byteLength": 4045588,
      "uri": "scene.bin"
    }
  ],
  "materials": [
    {
      "doubleSided": true,
      "name": "wire_255255000",
      "pbrMetallicRoughness": {
        "metallicFactor": 0.0,
        "roughnessFactor": 0.6
      }
    }
  ],
  "meshes": [
    {
      "name": "Object_0",
      "primitives": [
        {
          "attributes": {
            "NORMAL": 1,
            "POSITION": 0,
            "TEXCOORD_0": 2
          },
          "indices": 3,
          "material": 0,
          "mode": 4
        }
      ]
    },
    {
      "name": "Object_1",
      "primitives": [
        {
          "attributes": {
            "NORMAL": 5,
            "POSITION": 4,
            "TEXCOORD_0": 6
          },
          "indices": 7,
          "material": 0,
          "mode": 4
        }
      ]
    },
    {
      "name": "Object_2",
      "primitives": [
        {
          "attributes": {
            "NORMAL": 9,
            "POSITION": 8,
            "TEXCOORD_0": 10
          },
          "indices": 11,
          "material": 0,
          "mode": 4
        }
      ]
    },
    {
      "name": "Object_3",
      "primitives": [
        {
          "attributes": {
            "NORMAL": 13,
            "POSITION": 12,
            "TEXCOORD_0": 14
          },
          "indices": 15,
          "material": 0,
          "mode": 4
        }
      ]
    }
  ],
  "nodes": [
    {
      "children": [
        1
      ],
      "matrix": [
        1.0,
        0.0,
        0.0,
        0.0,
        0.0,
        2.220446049250313e-16,
        -1.0,
        0.0,
        0.0,
        1.0,
        2.220446049250313e-16,
        0.0,
        0.0,
        0.0,
        0.0,
        1.0
      ],
      "name": "Sketchfab_model"
    },
    {
      "children": [
        2
      ],
      "matrix": [
        1.0,
        0.0,
        0.0,
        0.0,
        0.0,
        1.0,
        0.0,
        0.0,
        0.0,
        0.0,
        1.0,
        0.0,
        -7766.498046875,
        35687.03125,
        3456.9580078125,
        1.0
      ],
      "name": "skfb_offset"
    },
    {
      "children": [
        3,
        4,
        5,
        6
      ],
      "name": "Object_2"
    },
    {
      "mesh": 0,
      "name": "Object_3"
    },
    {
      "mesh": 1,
      "name": "Object_4"
    },
    {
      "mesh": 2,
      "name": "Object_5"
    },
    {
      "mesh": 3,
      "name": "Object_6"
    }
  ],
  "scene": 0,
  "scenes": [
    {
      "name": "Sketchfab_Scene",
      "nodes": [
        0
      ]
    }
  ]
}
