{
  "accessors": [
    {
      "bufferView": 2,
      "componentType": 5126,
      "count": 65532,
      "max": [
        98.96261596679688,
        98.96261596679688,
        98.96261596679688
      ],
      "min": [
        -98.7199935913086,
        -98.96261596679688,
        -98.96261596679688
      ],
      "type": "VEC3"
    },
    {
      "bufferView": 2,
      "byteOffset": 786384,
      "componentType": 5126,
      "count": 65532,
      "max": [
        0.9999759793281555,
        0.9999759793281555,
        0.9999759793281555
      ],
      "min": [
        -0.999954879283905,
        -0.9999759793281555,
        -0.9999759793281555
      ],
      "type": "VEC3"
    },
    {
      "bufferView": 1,
      "componentType": 5126,
      "count": 65532,
      "max": [
        0.9741619825363159,
        1.0006860494613647
      ],
      "min": [
        0.011598000302910805,
        0.10297100245952606
      ],
      "type": "VEC2"
    },
    {
      "bufferView": 0,
      "componentType": 5125,
      "count": 357063,
      "type": "SCALAR"
    },
    {
      "bufferView": 2,
      "byteOffset": 1572768,
      "componentType": 5126,
      "count": 54123,
      "max": [
        98.96261596679688,
        98.96261596679688,
        98.96261596679688
      ],
      "min": [
        -98.96261596679688,
        -98.96261596679688,
        -98.9207992553711
      ],
      "type": "VEC3"
    },
    {
      "bufferView": 2,
      "byteOffset": 2222244,
      "componentType": 5126,
      "count": 54123,
      "max": [
        0.9999759793281555,
        0.9999759793281555,
        0.9999759793281555
      ],
      "min": [
        -0.9999759793281555,
        -0.9999759793281555,
        -0.9998257756233215
      ],
      "type": "VEC3"
    },
    {
      "bufferView": 1,
      "byteOffset": 524256,
      "componentType": 5126,
      "count": 54123,
      "max": [
        0.9936169981956482,
        1.0532879829406738
      ],
      "min": [
        0.029068000614643097,
        0.11910100281238556
      ],
      "type": "VEC2"
    },
    {
      "bufferView": 0,
      "byteOffset": 1428252,
      "componentType": 5125,
      "count": 288057,
      "type": "SCALAR"
    }
  ],
  "asset": {
    "extras": {
      "author": "Ali.Wayne (https://sketchfab.com/Ali.Wayne)",
      "license": "CC-BY-4.0 (http://creativecommons.org/licenses/by/4.0/)",
      "source": "https://sketchfab.com/3d-models/hollow-sphere-01b8572f86aa459aaac13ab6f9629406",
      "title": "Hollow Sphere"
    },
    "generator": "Sketchfab-12.66.0",
    "version": "2.0"
  },
  "bufferViews": [
    {
      "buffer": 0,
      "byteLength": 2580480,
      "name": "floatBufferViews",
      "target": 34963
    },
    {
      "buffer": 0,
      "byteLength": 957240,
      "byteOffset": 2580480,
      "byteStride": 8,
      "name": "floatBufferViews",
      "target": 34962
    },
    {
      "buffer": 0,
      "byteLength": 2871720,
      "byteOffset": 3537720,
      "byteStride": 12,
      "name": "floatBufferViews",
      "target": 34962
    }
  ],
  "buffers": [
    {
      "byteLength": 6409440,
      "uri": "scene.bin"
    }
  ],
  "materials": [
    {
      "doubleSided": true,
      "name": "default",
      "pbrMetallicRoughness": {
        "baseColorFactor": [
          0.398045601540723,
          0.025379134435850183,
          0.025379134435850183,
          1.0
        ],
        "roughnessFactor": 0.6
      }
    }
  ],
  "meshes": [
    {
      "name": "Object_0",
      "primitives": [
        {
          "attributes": {
            "NORMAL": 1,
            "POSITION": 0,
            "TEXCOORD_0": 2
          },
          "indices": 3,
          "material": 0,
          "mode": 4
        }
      ]
    },
    {
      "name": "Object_1",
      "primitives": [
        {
          "attributes": {
            "NORMAL": 5,
            "POSITION": 4,
            "TEXCOORD_0": 6
          },
          "indices": 7,
          "material": 0,
          "mode": 4
        }
      ]
    }
  ],
  "nodes": [
    {
      "children": [
        1
      ],
      "matrix": [
        1.0,
        0.0,
        0.0,
        0.0,
        0.0,
        2.220446049250313e-16,
        -1.0,
        0.0,
        0.0,
        1.0,
        2.220446049250313e-16,
        0.0,
        0.0,
        0.0,
        0.0,
        1.0
      ],
      "name": "Sketchfab_model"
    },
    {
      "children": [
        2,
        3
      ],
      "name": "Untitled 4_Sketchfab.obj.cleaner.materialmerger.gles"
    },
    {
      "mesh": 0,
      "name": "Object_2"
    },
    {
      "mesh": 1,
      "name": "Object_3"
    }
  ],
  "scene": 0,
  "scenes": [
    {
      "name": "Sketchfab_Scene",
      "nodes": [
        0
      ]
    }
  ]
}
